<svg xmlns="http://www.w3.org/2000/svg" width="640" height="480" viewBox="0 0 640 480">
  <path fill="#012169" d="M0 0h640v480H0z"/>
  <path fill="#FFF" d="M75 0l245 180L565 0h75v60L420 240l220 160v60h-75L320 300 95 480H0v-60l220-160L0 60V0h75z"/>
  <path fill="#C8102E" d="M424 280l216 160v40L380 280h44zM220 200L0 40V0l280 200h-60zM640 0v40L420 200h-60L640 0zM0 440v-40l220-160h60L0 480v-40z"/>
  <path fill="#FFF" d="M240 0h160v480H240zM0 160h640v160H0z"/>
  <path fill="#C8102E" d="M0 192h640v96H0zM272 0h96v480h-96z"/>
</svg>
